<svg xmlns="http://www.w3.org/2000/svg" viewBox="0 0 256 256" role="img" aria-label="Obsidian">
  <defs>
    <linearGradient id="g1" x1="0" y1="0" x2="1" y2="1">
      <stop offset="0%" stop-color="#8c6cff"/>
      <stop offset="100%" stop-color="#5a3ec8"/>
    </linearGradient>
    <linearGradient id="g2" x1="0" y1="0" x2="1" y2="1">
      <stop offset="0%" stop-color="#d7c9ff" stop-opacity="0.9"/>
      <stop offset="100%" stop-color="#ffffff" stop-opacity="0"/>
    </linearGradient>
  </defs>
  <rect width="256" height="256" rx="56" fill="#1f1637"/>
  <path fill="url(#g1)" d="M142 18c-9-9-23-9-32 0L52 76c-7 7-10 17-8 27l18 90c2 10 9 18 19 21l34 11c8 3 17 1 24-4l44-33c7-5 11-13 12-22l9-91c1-10-3-20-10-27L142 18z"/>
  <path fill="#3e2b7f" d="M114 52c6-6 16-6 22 0l31 31c4 4 6 10 5 16l-8 77c-1 5-4 10-8 13l-30 22c-5 3-11 4-16 2l-24-8c-6-2-11-7-12-13l-15-73c-1-6 1-12 5-16l50-51z"/>
  <path fill="url(#g2)" d="M124 34l44 44c4 4 5 9 4 14l-5 46-66-103c8-5 17-5 23-1z"/>
  <path fill="#bfa8ff" fill-opacity="0.7" d="M98 149l20 48-23-8c-5-2-9-6-10-11l-8-40 21 11z"/>
  <path fill="#2a1d51" fill-opacity="0.65" d="M151 168l-29 21-11-27 40 6z"/>
</svg>
